<svg xmlns="http://www.w3.org/2000/svg" xmlns:xlink="http://www.w3.org/1999/xlink" width="328.486" height="420" viewBox="0 0 328.486 420">
  <defs>
    <clipPath id="clip-path">
      <rect id="Rectangle" width="420" height="238.396" rx="24" fill="#dbefec"/>
    </clipPath>
  </defs>
  <g id="Grupo_894195" data-name="Grupo 894195" transform="translate(0)">
    <path id="Trazado_255806" data-name="Trazado 255806" d="M21,0H307.486c11.6,0,21,6.974,21,15.578V404.367c0,8.6-9.4,15.578-21,15.578H21c-11.6,0-21-6.974-21-15.578V15.578C0,6.974,9.4,0,21,0Z" transform="translate(0 0)" fill="#169788"/>
    <g id="Grupo_149385" data-name="Grupo 149385" transform="translate(238.396 0) rotate(90)" clip-path="url(#clip-path)">
      <path id="Trazado_255807" data-name="Trazado 255807" d="M305.271,163.906l-10.666-20.422,10.666-20.428H326.6l10.666,20.423L326.6,163.906ZM326.6,73.794H305.271L294.606,94.221l10.666,20.413H326.6l10.666-20.423Zm-73.65,90.113,10.661-20.422-10.661-20.428H231.617l-10.661,20.423,10.661,20.428Zm-36.411,73.984L227.2,217.463l-10.666-20.413H195.211l-10.666,20.423,10.661,20.418ZM105.643,213.169,116.3,192.742l-10.661-20.423H84.316L73.655,192.742l10.661,20.428Zm-73.65,0,10.666-20.428L31.993,172.319H10.652L0,192.742l10.652,20.428Zm110.89,24.722,10.666-20.423-10.666-20.423H121.556l-10.661,20.423,10.661,20.423Zm36.411-24.727,10.666-20.428-10.666-20.418H157.966l-10.661,20.423,10.661,20.428ZM69.233,237.891,79.9,217.463,69.233,197.041H47.905L37.244,217.468l10.661,20.423Zm147.305-49.253L227.2,168.21l-10.666-20.423H195.206L184.545,168.21l10.661,20.428Zm73.65,0,10.666-20.428-10.643-20.423h-21.35L258.2,168.21l10.661,20.428Zm-37.24-74,10.661-20.423L252.948,73.784H231.617L220.955,94.211l10.661,20.423Zm-73.655,0,10.666-20.423L179.293,73.794H157.966L147.305,94.221l10.661,20.413Zm37.244,24.732L227.2,118.943,216.538,98.525H195.206l-10.661,20.428,10.661,20.423ZM378.922,65.381h21.332l10.661-20.423L400.253,24.531H378.922L368.26,44.959ZM142.883,139.375l10.666-20.423L142.883,98.52H121.556l-10.661,20.428,10.661,20.423Zm36.411,24.551L189.959,143.5l-10.666-20.448H157.966l-10.661,20.428,10.661,20.422Zm-36.411,24.727,10.666-20.423-10.666-20.423H121.556L110.894,168.23l10.661,20.428Zm-37.24-24.727L116.3,143.5l-10.661-20.423H84.316L73.655,143.5l10.661,20.428Zm184.545-24.551,10.666-20.428L290.211,98.525h-21.35L258.2,118.958l10.661,20.423Zm0-90.113H268.861L258.2,69.685l10.661,20.428h21.35l10.666-20.428Zm52.328,197.051L331.85,266.736l10.666,20.428h21.327l10.643-20.428-10.648-20.423Zm-89.567-24.732H231.617L220.955,242l10.661,20.438h21.332l10.661-20.428Zm73.65,0H305.271L294.606,242l10.666,20.438H326.6l10.666-20.428Zm-73.65-8.413,10.661-20.428-10.661-20.423H231.617l-10.661,20.423,10.661,20.428Zm-73.655,8.413H157.966L147.305,242l10.661,20.438h21.327l10.666-20.428Zm-57.738,24.727-10.661,20.428,10.661,20.428h21.327l10.666-20.428-10.666-20.428Zm73.65,0-10.661,20.423,10.666,20.428h21.327L227.2,266.731l-10.666-20.418Zm183.715-24.732L368.256,242l10.666,20.443h21.332l10.661-20.428-10.666-20.423Zm0-98.525L368.26,143.479,378.922,163.9h21.332l10.661-20.428-10.661-20.423Zm0-49.263L368.26,94.216l10.661,20.418h21.327l10.666-20.423L400.253,73.784Zm0,98.525-10.666,20.423,10.666,20.428h21.332l10.661-20.428-10.661-20.423Zm-110.061,74L258.2,266.736l10.661,20.428h21.35l10.661-20.428-10.661-20.423ZM105.643,221.582H84.316L73.632,242l10.684,20.438h21.327L116.3,242.014Zm258.2-123.056H342.516L331.85,118.948l10.666,20.428h21.327l10.643-20.428Zm0,49.263H342.516L331.85,168.21l10.666,20.428h21.323l10.648-20.428ZM326.6,213.169l10.666-20.428L326.6,172.319H305.271l-10.666,20.423,10.666,20.428Zm-36.388,24.722,10.661-20.428-10.661-20.418h-21.35L258.2,217.473l10.661,20.418Zm73.65,0,10.625-20.418-10.661-20.428H342.516L331.85,217.473l10.666,20.418ZM31.993,221.582H10.652L0,242l10.652,20.438H31.993l10.666-20.428ZM363.843,49.263H342.516L331.85,69.685l10.666,20.428h21.323l10.648-20.428ZM47.905,246.313,37.24,266.736l10.666,20.428H69.233L79.9,266.736,69.233,246.308ZM342.516,40.85h21.323l10.648-20.412L363.843,0H342.516L331.85,20.438Z" transform="translate(29.483 -4.43)" fill="#fff" opacity="0.05"/>
    </g>
  </g>
</svg>
