<svg xmlns="http://www.w3.org/2000/svg" width="57.204" height="49.539" viewBox="0 0 57.204 49.539">
  <g id="a1" transform="translate(11696.06 23497.33)">
    <g id="Group_899587" data-name="Group 899587" transform="translate(-11729.333 -23824.164)">
      <path id="Path_251720" data-name="Path 251720" d="M92.232,339.23h-28.6L49.33,364l14.3,24.768h28.6L106.534,364Z" transform="translate(-16.057 -12.396)" fill="#dbefec" opacity="0.8"/>
      <path id="Path_251721" data-name="Path 251721" d="M94.952,344.83H68.842L55.79,367.441l13.052,22.611H94.952l13.055-22.611Z" transform="translate(-20.024 -15.835)" fill="none" stroke="#169788" stroke-miterlimit="10" stroke-width="0.98" stroke-dasharray="2"/>
    </g>
    <g id="Group_899588" data-name="Group 899588" transform="translate(-12455.199 -23850.721)">
      <path id="Path_626692" data-name="Path 626692" d="M925.858,469.476a1.629,1.629,0,0,1-.491.314,2.194,2.194,0,0,0-.81.1,3.216,3.216,0,0,1-4.01-3.119c-.016-5.8-.006-11.6,0-17.4,0-.468.061-.528.534-.529q2.65-.005,5.3,0c.569,0,.611.041.611.608q0,6.725,0,13.451c0,1.277,0,2.553,0,3.83a3.042,3.042,0,0,1-.192,1.111,1.273,1.273,0,0,0-.106.741l-.36.471C925.941,469.088,925.941,469.088,925.858,469.476Z" transform="translate(-136.024 -76.01)" fill="#d3e6b1"/>
      <path id="Path_626693" data-name="Path 626693" d="M1047.174,454.208q0-.3,0-.6a1.038,1.038,0,0,0,.2-.716c-.006-1.164,0-2.328,0-3.493,0-.5.055-.553.54-.553q2.68,0,5.361,0c.488,0,.542.056.542.55,0,5.832.022,11.663-.01,17.495a3.165,3.165,0,0,1-4.434,2.844,3.286,3.286,0,0,1-2-3.295c-.009-3.207,0-6.414,0-9.62,0-.245-.007-.491,0-.735a.87.87,0,0,0-.2-.654q0-.3,0-.6C1047.455,454.546,1047.455,454.5,1047.174,454.208Z" transform="translate(-252.303 -76.025)" fill="#9dca87"/>
      <path id="Path_626694" data-name="Path 626694" d="M788.959,455.433v-.591c.253-.317.253-.317,0-.636v-.591a1.35,1.35,0,0,0,.224-.866c-.01-1.124-.007-2.247,0-3.371,0-.47.059-.527.534-.527q2.681,0,5.362,0c.492,0,.546.055.546.545q0,8.519,0,17.038a3.345,3.345,0,0,1-1.3,2.9,3.062,3.062,0,0,1-3.324.34,3.022,3.022,0,0,1-1.809-2.867c-.021-3.493-.009-6.987,0-10.48A1.349,1.349,0,0,0,788.959,455.433Z" transform="translate(-15.204 -76.026)" fill="#93eac2"/>
      <path id="Path_626695" data-name="Path 626695" d="M909.2,392.577a.346.346,0,0,1-.1-.484,3.326,3.326,0,0,0,.3-1.485q0-8.67.005-17.341c0-.286-.08-.346-.352-.344q-2.8.018-5.606,0c-.234,0-.3.051-.3.3q.012,8.732.008,17.463a3.138,3.138,0,0,0,3.244,3.21,2.935,2.935,0,0,0,.984-.2.4.4,0,0,1,.5.1c.059.257-.052.39-.294.481a3.737,3.737,0,0,1-5.043-3.548q-.008-10.343,0-20.685c0-.269-.02-.412-.354-.428a.8.8,0,0,1-.687-.816c-.014-.623-.016-1.246,0-1.869a.87.87,0,0,1,.955-.858q2.834,0,5.669,0c.654,0,1.307,0,1.961,0a.889.889,0,0,1,.967.974c0,.552,0,1.1,0,1.655a.848.848,0,0,1-.837.936c-.253.02-.2.165-.2.308q0,6.052,0,12.1,0,4.321,0,8.642a3.866,3.866,0,0,1-.353,1.661C909.562,392.557,909.43,392.66,909.2,392.577Z" transform="translate(-118.53 -0.014)" fill="#fefefe"/>
      <path id="Path_626696" data-name="Path 626696" d="M773.755,379.407c.289.065.3.282.3.522,0,3.554,0,7.108,0,10.662a3.1,3.1,0,0,0,1.179,2.6,2.955,2.955,0,0,0,3.277.375A3.051,3.051,0,0,0,780.3,390.6q.005-4.442,0-8.885c0-2.829,0-5.658.006-8.486,0-.25-.055-.326-.314-.324q-2.818.017-5.637,0c-.232,0-.309.047-.306.3.014,1.3,0,2.594.008,3.891,0,.235-.038.429-.3.492-.278-.043-.314-.234-.313-.472,0-2.38,0-4.761.009-7.141,0-.254-.048-.35-.322-.367a.775.775,0,0,1-.713-.755q-.027-1,0-1.992a.841.841,0,0,1,.875-.8c.388-.01.776,0,1.165,0h6.436c.739,0,1.062.322,1.065,1.063,0,.5,0,1,0,1.5a.876.876,0,0,1-.866,1.009c-.127.019-.186.052-.175.184.006.071,0,.143,0,.214q0,10.283,0,20.566a3.658,3.658,0,0,1-2.222,3.572,3.712,3.712,0,0,1-5.24-3.314c-.022-3.668,0-7.335-.009-11C773.442,379.614,773.5,379.445,773.755,379.407Z" fill="#fefefe"/>
      <path id="Path_626697" data-name="Path 626697" d="M1031.928,379.429c.306.043.311.266.311.5q0,5.334,0,10.667a3.111,3.111,0,0,0,1.327,2.718,3.106,3.106,0,0,0,4.9-2.383c.042-1.061.014-2.125.015-3.188q0-7.234.007-14.468c0-.278-.068-.353-.349-.351q-2.789.02-5.578,0c-.281,0-.333.083-.33.343.013,1.287,0,2.575.008,3.862,0,.236-.032.432-.312.474-.294-.06-.3-.281-.3-.519,0-2.36,0-4.719.006-7.079,0-.232-.013-.367-.306-.381a.751.751,0,0,1-.707-.691,12.165,12.165,0,0,1,0-2.141.837.837,0,0,1,.919-.72c1.307,0,2.615,0,3.922,0q1.839,0,3.677,0a.886.886,0,0,1,1,1c0,.552.006,1.1,0,1.655a.824.824,0,0,1-.82.914c-.27.021-.218.177-.218.331q0,10.328,0,20.655a3.663,3.663,0,0,1-1.747,3.3,3.729,3.729,0,0,1-5.716-3.1c-.027-3.657-.01-7.314-.012-10.971C1031.625,379.635,1031.692,379.475,1031.928,379.429Z" transform="translate(-237.057 -0.02)" fill="#fefefe"/>
      <path id="Path_626698" data-name="Path 626698" d="M1043.884,514.391c.179.03.3.115.3.315s-.127.283-.3.316c-.178-.039-.3-.139-.293-.331A.313.313,0,0,1,1043.884,514.391Z" transform="translate(-249.013 -136.208)" fill="#fefefe"/>
      <path id="Path_626699" data-name="Path 626699" d="M785.51,514.364a.323.323,0,0,1,.293.3c.008.19-.118.289-.293.334-.176-.035-.307-.116-.307-.319S785.332,514.4,785.51,514.364Z" transform="translate(-11.755 -136.183)" fill="#fefefe"/>
      <path id="Path_626700" data-name="Path 626700" d="M984.971,695.653a.33.33,0,0,1,.036-.412.343.343,0,0,1,.439-.02c.094.163.129.327-.033.466S985.112,695.755,984.971,695.653Z" transform="translate(-195.137 -302.187)" fill="#fefefe"/>
      <path id="Path_626701" data-name="Path 626701" d="M957.013,553.739c0,.224.007.449,0,.673a1.164,1.164,0,0,1-2.327,0c-.014-.448-.012-.9,0-1.346a1.165,1.165,0,0,1,2.328,0C957.02,553.291,957.014,553.515,957.013,553.739Z" transform="translate(-167.369 -170.683)" fill="#fefefe"/>
      <path id="Path_626702" data-name="Path 626702" d="M928.349,629.715c0-.521,0-1.041,0-1.562,0-.208.016-.408.284-.416s.315.2.322.4c.015.4.007.8.007,1.194,0,.572.02,1.144,0,1.714a1.973,1.973,0,0,0,1.824,1.975.773.773,0,0,1,.322.082.258.258,0,0,1,.126.315.282.282,0,0,1-.3.215,2.314,2.314,0,0,1-1.565-.514,2.47,2.47,0,0,1-1.023-2.057C928.356,630.614,928.349,630.164,928.349,629.715Z" transform="translate(-143.194 -240.286)" fill="#f7e4af"/>
      <path id="Path_626703" data-name="Path 626703" d="M935.562,471.464a1.174,1.174,0,0,1-1.2-1.171,1.188,1.188,0,0,1,1.193-1.213,1.211,1.211,0,0,1,1.193,1.193A1.2,1.2,0,0,1,935.562,471.464Z" transform="translate(-148.719 -94.602)" fill="#fefefe"/>
      <path id="Path_626704" data-name="Path 626704" d="M952.333,637.361a.28.28,0,0,1,.251.429c-.171.236-.1.392.05.594a.857.857,0,0,1-.035,1.05.306.306,0,0,1-.452.093.275.275,0,0,1-.056-.428.334.334,0,0,0-.027-.464.857.857,0,0,1-.015-1.124A.327.327,0,0,1,952.333,637.361Z" transform="translate(-164.771 -249.122)" fill="#fefefe"/>
      <path id="Path_626705" data-name="Path 626705" d="M942.724,536.9c-.015.191.079.487-.289.528-.23.026-.323-.152-.323-.577a2.4,2.4,0,0,1,0-.275c.021-.182.113-.312.312-.309a.283.283,0,0,1,.3.316C942.726,536.672,942.724,536.764,942.724,536.9Z" transform="translate(-155.83 -156.293)" fill="#fefefe"/>
      <path id="Path_626706" data-name="Path 626706" d="M965.848,513.429a2.935,2.935,0,0,1,0,.306.3.3,0,0,1-.6-.006c-.013-.172,0-.347,0-.52,0-.2.077-.346.295-.351.234-.006.321.141.318.357,0,.071,0,.143,0,.214Z" transform="translate(-177.065 -134.8)" fill="#fefefe"/>
      <path id="Path_626707" data-name="Path 626707" d="M972.671,610.571c0,.1.005.2,0,.306a.3.3,0,0,1-.595.027,3.353,3.353,0,0,1-.008-.61.3.3,0,1,1,.607.033c0,.081,0,.163,0,.245Z" transform="translate(-183.328 -223.994)" fill="#fefefe"/>
      <path id="Path_626708" data-name="Path 626708" d="M928.314,608.68a2.59,2.59,0,0,1,.015-.273.252.252,0,0,1,.223-.219.264.264,0,0,1,.308.143.792.792,0,0,1,.013.652.266.266,0,0,1-.3.168.263.263,0,0,1-.255-.257c0-.071,0-.142,0-.213Z" transform="translate(-143.163 -222.329)" fill="#f7e3ac"/>
      <path id="Path_626709" data-name="Path 626709" d="M1064.129,490.338a1.057,1.057,0,0,1,.779.305c.431.422.858.846,1.278,1.279a1.057,1.057,0,0,1,.281,1.1.437.437,0,0,0,.123.48,1.477,1.477,0,0,1,.346,1.34c-.047.21-.147.381-.394.317-.218-.056-.262-.222-.207-.436a.869.869,0,0,0-.089-.652c-.126-.229-.243-.38-.564-.24a.971.971,0,0,1-1.081-.221c-.47-.439-.931-.889-1.366-1.363a1.073,1.073,0,0,1-.162-1.257A1.1,1.1,0,0,1,1064.129,490.338Z" transform="translate(-266.782 -114.122)" fill="#fefefe"/>
      <path id="Path_626710" data-name="Path 626710" d="M1057.4,611c0-.766,0-1.533,0-2.3,0-.217.007-.438.3-.437s.32.223.32.455c0,1.441.006,2.881,0,4.322a2.032,2.032,0,0,0,.651,1.591c.162.15.249.324.086.5s-.345.092-.5-.056a2.508,2.508,0,0,1-.838-1.842c-.014-.746,0-1.492,0-2.238Z" transform="translate(-261.692 -222.409)" fill="#81b722"/>
      <path id="Path_626711" data-name="Path 626711" d="M1078.28,592.64a1.346,1.346,0,0,1,1.336-1.35,1.37,1.37,0,0,1,1.36,1.367,1.35,1.35,0,0,1-1.362,1.328A1.331,1.331,0,0,1,1078.28,592.64Z" transform="translate(-280.866 -206.82)" fill="#fefefe"/>
      <path id="Path_626712" data-name="Path 626712" d="M1105.33,466.345c0,.092,0,.184,0,.275a.287.287,0,0,1-.3.314.3.3,0,0,1-.308-.312c-.011-.162-.005-.326,0-.489,0-.212.092-.364.324-.357.217.006.292.155.289.355,0,.071,0,.143,0,.214Z" transform="translate(-305.139 -91.569)" fill="#fefefe"/>
      <path id="Path_626713" data-name="Path 626713" d="M1070.114,560.487c0-.071,0-.143,0-.214a.285.285,0,0,1,.291-.323.289.289,0,0,1,.316.3,4.347,4.347,0,0,1,0,.55.294.294,0,0,1-.31.31.288.288,0,0,1-.3-.318C1070.114,560.691,1070.115,560.589,1070.114,560.487Z" transform="translate(-273.368 -178.042)" fill="#fefefe"/>
      <path id="Path_626714" data-name="Path 626714" d="M1106.312,647.685c-.005.173.059.459-.3.5-.223.027-.317-.161-.317-.585a2.5,2.5,0,0,1,.006-.274c.02-.185.115-.308.314-.3s.285.132.292.32C1106.314,647.437,1106.312,647.528,1106.312,647.685Z" transform="translate(-306.042 -257.996)" fill="#fefefe"/>
      <path id="Path_626715" data-name="Path 626715" d="M1081.563,692.847a1.734,1.734,0,0,1-.3-.035.284.284,0,0,1-.216-.3.289.289,0,0,1,.261-.291,1.371,1.371,0,0,1,.273,0c.214.015.427.056.422.329S1081.778,692.852,1081.563,692.847Z" transform="translate(-283.405 -299.495)" fill="#fec9c1"/>
      <path id="Path_626716" data-name="Path 626716" d="M808.964,492.794a.414.414,0,0,0,.529-.12c.158-.193.328-.319.048-.546a.25.25,0,0,1,.021-.383.3.3,0,0,1,.414-.026c.094.059.16.3.3.138s.487-.232.378-.581a.284.284,0,0,1,.2-.387.269.269,0,0,1,.368.18c.05.162.142.187.289.2a1.125,1.125,0,0,1,1.029,1.038c.012.114.007.212.151.261a.272.272,0,0,1,.19.365.3.3,0,0,1-.386.207,1.043,1.043,0,0,0-.6.432c-.018.1.076.136.128.191.147.155.2.318.03.48a.285.285,0,0,1-.455-.043c-.155-.193-.254-.113-.378.028-.149.17-.366.29-.223.59.073.153-.035.3-.206.352a.266.266,0,0,1-.349-.169.259.259,0,0,0-.289-.188,1.147,1.147,0,0,1-1.165-1.166.259.259,0,0,0-.189-.289.268.268,0,0,1-.17-.349A.294.294,0,0,1,808.964,492.794Z" transform="translate(-33.254 -114.61)" fill="#fefefe"/>
      <path id="Path_626717" data-name="Path 626717" d="M820.845,617.208a1.149,1.149,0,0,1-.652,1.013,1.059,1.059,0,0,1-1.231-.128,10.807,10.807,0,0,1-1.1-1.1,1.158,1.158,0,0,1,1.665-1.6c.364.327.7.682,1.04,1.036A1.118,1.118,0,0,1,820.845,617.208Z" transform="translate(-41.502 -228.691)" fill="#fefefe"/>
      <path id="Path_626718" data-name="Path 626718" d="M799.4,610.933c0,.694,0,1.388,0,2.082a2.188,2.188,0,0,0,.65,1.626c.143.145.286.3.1.494s-.365.1-.527-.059a2.563,2.563,0,0,1-.825-1.816c-.025-1.53-.008-3.061-.009-4.592,0-.239.083-.407.348-.4.229.008.267.175.267.368C799.4,609.4,799.4,610.168,799.4,610.933Z" transform="translate(-24.22 -222.41)" fill="#c4e4fd"/>
      <path id="Path_626719" data-name="Path 626719" d="M805.9,553.4a.294.294,0,0,1,.28.455.389.389,0,0,0,.038.54.864.864,0,0,1-.01,1.073c-.126.156-.276.221-.45.1a.279.279,0,0,1-.066-.428.357.357,0,0,0-.039-.49.867.867,0,0,1-.024-1.073C805.707,553.485,805.789,553.392,805.9,553.4Z" transform="translate(-30.353 -172.03)" fill="#fefefe"/>
      <path id="Path_626720" data-name="Path 626720" d="M819.06,467.453a2.8,2.8,0,0,1,0-.306.3.3,0,0,1,.6.011c.011.183.006.367,0,.55a.286.286,0,0,1-.3.32c-.21,0-.311-.124-.316-.331,0-.082,0-.163,0-.245Z" transform="translate(-42.84 -92.573)" fill="#fefefe"/>
      <path id="Path_626721" data-name="Path 626721" d="M842.336,582.3c0,.238.064.525-.291.57-.225.029-.32-.158-.32-.582a2.134,2.134,0,0,1,.008-.305.287.287,0,0,1,.308-.276.277.277,0,0,1,.293.287C842.341,582.1,842.336,582.2,842.336,582.3Z" transform="translate(-63.654 -198.024)" fill="#fefefe"/>
      <path id="Path_626722" data-name="Path 626722" d="M823.268,692.8c-.194-.018-.467.037-.479-.318a.254.254,0,0,1,.242-.293,1.217,1.217,0,0,1,.481.038.29.29,0,0,1,.238.335.271.271,0,0,1-.329.24C823.38,692.8,823.339,692.8,823.268,692.8Z" transform="translate(-46.267 -299.463)" fill="#c3e4fd"/>
      <path id="Path_626723" data-name="Path 626723" d="M913.215,373.544h3.706c.366,0,.428.063.43.425,0,.51-.007,1.021,0,1.532.005.266-.089.4-.37.4q-3.8-.006-7.6,0c-.281,0-.377-.128-.372-.4q.015-.781,0-1.562c-.006-.288.112-.4.4-.4C910.683,373.549,911.949,373.544,913.215,373.544Z" transform="translate(-125.443 -6.876)" fill="#aeaeae"/>
      <path id="Path_626724" data-name="Path 626724" d="M927.986,415.233c0,.621,0,1.243.011,1.864,0,.179-.058.217-.225.216q-2.9-.008-5.807,0c-.168,0-.228-.038-.225-.217.013-.621.009-1.243.011-1.864.077-.159.228-.158.369-.159q2.749-.009,5.5,0C927.759,415.075,927.91,415.073,927.986,415.233Z" transform="translate(-137.127 -45.008)" fill="#eee"/>
      <path id="Path_626725" data-name="Path 626725" d="M928.037,410.432a.54.54,0,0,0-.325-.056h-5.585a.544.544,0,0,0-.325.056c-.022-.591-.022-.591.547-.591h5.264c.433,0,.433,0,.431.439C928.044,410.331,928.039,410.382,928.037,410.432Z" transform="translate(-137.177 -40.208)" fill="#adadad"/>
      <path id="Path_626726" data-name="Path 626726" d="M784.1,375.9h-3.736c-.4,0-.444-.04-.445-.433q0-.75,0-1.5c0-.362.053-.418.4-.418q3.766,0,7.533,0c.272,0,.4.107.394.378,0,.531-.007,1.062,0,1.592,0,.294-.131.39-.412.388C786.595,375.9,785.349,375.9,784.1,375.9Z" transform="translate(-6.906 -6.88)" fill="#aeaeae"/>
      <path id="Path_626727" data-name="Path 626727" d="M798.811,417.285l-4.9.013c-.368,0-.735,0-1.1,0-.138,0-.2-.026-.2-.183.013-.653.016-1.306.022-1.959a.536.536,0,0,1,.4-.1q2.69,0,5.381,0c.409,0,.431.03.431.431,0,.5,0,1,0,1.5C798.845,417.088,798.878,417.193,798.811,417.285Z" transform="translate(-18.555 -44.997)" fill="#eee"/>
      <path id="Path_626728" data-name="Path 626728" d="M798.808,412.439c0-.6-.013-1.2.005-1.8.008-.254-.067-.325-.322-.324-1.954.008-3.909,0-5.863,0a.581.581,0,0,1-.017-.09c-.018-.44-.018-.44.432-.44,1.836,0,3.672,0,5.508-.005.238,0,.315.057.31.3-.013.693.005,1.387,0,2.08C798.864,412.254,798.925,412.368,798.808,412.439Z" transform="translate(-18.552 -40.15)" fill="#adadad"/>
      <path id="Path_626729" data-name="Path 626729" d="M1042.375,373.579q1.883,0,3.766,0c.359,0,.412.052.414.4q0,.766,0,1.531c0,.37-.047.416-.431.416q-3.536,0-7.073,0c-.868,0-.825.091-.822-.83,0-.347,0-.694,0-1.041,0-.425.056-.48.47-.481Z" transform="translate(-244.089 -6.911)" fill="#aeaeae"/>
      <path id="Path_626730" data-name="Path 626730" d="M1057.21,415.166c.006.653.006,1.306.022,1.959,0,.191-.1.182-.23.181-.868,0-1.736,0-2.6,0q-1.684,0-3.368-.013a1.6,1.6,0,0,1-.034-.6c-.009-.438.007-.877-.007-1.315-.007-.216.087-.3.283-.3.071,0,.142-.006.214-.006q2.629,0,5.259,0A.621.621,0,0,1,1057.21,415.166Z" transform="translate(-255.803 -45.003)" fill="#eee"/>
      <path id="Path_626731" data-name="Path 626731" d="M1057.025,410.334c-1.944,0-3.888.01-5.833,0-.282,0-.364.075-.354.356.021.59.006,1.181.006,1.771-.082-.026-.059-.1-.059-.152,0-.765.011-1.53.009-2.295,0-.162.058-.211.214-.211q2.908.005,5.815,0c.177,0,.241.059.221.229C1057.033,410.131,1057.031,410.233,1057.025,410.334Z" transform="translate(-255.618 -40.171)" fill="#adadad"/>
      <path id="Path_626732" data-name="Path 626732" d="M963.3,560.643c0,.2.006.407,0,.61a.551.551,0,1,1-1.1.022q-.018-.64,0-1.282a.551.551,0,1,1,1.1.009C963.3,560.215,963.3,560.429,963.3,560.643Z" transform="translate(-174.265 -177.579)" fill="#20cb7d"/>
      <path id="Path_626733" data-name="Path 626733" d="M941.884,477.183a.569.569,0,0,1,.6-.562.592.592,0,0,1,.559.579.575.575,0,0,1-.59.572A.559.559,0,0,1,941.884,477.183Z" transform="translate(-155.623 -101.527)" fill="#20cb7d"/>
      <path id="Path_626734" data-name="Path 626734" d="M1072.384,500.139a.637.637,0,0,1-.454-.2c-.39-.39-.785-.775-1.168-1.171a.553.553,0,1,1,.776-.786c.4.391.8.791,1.192,1.189a.539.539,0,0,1,.134.618A.56.56,0,0,1,1072.384,500.139Z" transform="translate(-273.787 -120.973)" fill="#81b722"/>
      <path id="Path_626735" data-name="Path 626735" d="M1086.513,600.3a.719.719,0,0,1-.72-.746.727.727,0,0,1,.722-.717.747.747,0,0,1,.745.735A.739.739,0,0,1,1086.513,600.3Z" transform="translate(-287.765 -213.75)" fill="#81b722"/>
      <path id="Path_626736" data-name="Path 626736" d="M822.925,503.665a.544.544,0,0,1-.2.392c-.383.382-.762.769-1.149,1.147a.554.554,0,1,1-.794-.767c.391-.4.792-.8,1.191-1.192a.552.552,0,0,1,.95.421Z" transform="translate(-44.247 -125.814)" fill="#97eae1"/>
      <path id="Path_626737" data-name="Path 626737" d="M825.7,622.611a.634.634,0,0,1,.387.172c.295.3.6.584.883.887a.549.549,0,1,1-.761.792c-.319-.3-.627-.612-.927-.929a.5.5,0,0,1-.089-.595A.569.569,0,0,1,825.7,622.611Z" transform="translate(-48.419 -235.579)" fill="#97eae1"/>
    </g>
  </g>
</svg>
