<svg xmlns="http://www.w3.org/2000/svg" width="56.459" height="50.275" viewBox="0 0 56.459 50.275">
  <g id="a2" transform="translate(11629.113 23497.822)">
    <g id="Group_874820" data-name="Group 874820" transform="translate(-11628.547 -23511.746)">
      <path id="Path_251617" data-name="Path 251617" d="M65.921,73.67H39.6L26.44,96.464,39.6,119.258H65.921L79.077,96.464Z" transform="translate(-23.698 -56.883)" fill="rgba(254,254,254,0.15)" stroke="#fefefe" stroke-miterlimit="10" stroke-width="0.89"/>
      <line id="Line_473" data-name="Line 473" x1="26.778" transform="translate(15.445 14.415)" fill="none" stroke="#fefefe" stroke-miterlimit="10" stroke-width="0.98" stroke-dasharray="1.97 1.97"/>
      <path id="Path_251619" data-name="Path 251619" d="M52.172,68.53h-.462l-.231.4" transform="translate(-37.18 -54.115)" fill="none" stroke="#28965a" stroke-miterlimit="10" stroke-width="0.98"/>
      <line id="Line_474" data-name="Line 474" x1="13.386" y2="23.186" transform="translate(0.457 15.601)" fill="none" stroke="#fefefe" stroke-miterlimit="10" stroke-width="0.98" stroke-dasharray="1.97 1.97"/>
      <path id="Path_251620" data-name="Path 251620" d="M20.731,122.18l-.231.4.231.4" transform="translate(-20.5 -83)" fill="none" stroke="#28965a" stroke-miterlimit="10" stroke-width="0.98"/>
      <line id="Line_475" data-name="Line 475" x2="13.391" y2="23.186" transform="translate(0.683 40.768)" fill="none" stroke="#fefefe" stroke-miterlimit="10" stroke-width="0.98" stroke-dasharray="1.97 1.97"/>
    </g>
    <g id="Group_899585" data-name="Group 899585" transform="translate(-12386.875 -23855.135)">
      <path id="Path_626739" data-name="Path 626739" d="M768.095,389.16a1.6,1.6,0,0,0,.173-.626,6.665,6.665,0,0,1,2.817-4.02,4.183,4.183,0,0,0,1.722-2.046,5.241,5.241,0,0,0,.247-1.575,15.075,15.075,0,0,0,0-1.609.624.624,0,0,1,.6-.681c.756-.032,1.515-.007,2.272,0,.029,0,.059.034.088.052-.12.13-.28.095-.427.1-.535.006-1.07,0-1.643,0a2.125,2.125,0,0,1,.126.96c.015.592,0,1.183.05,1.777a3.539,3.539,0,0,0,1.464,2.632,8.521,8.521,0,0,1,2.249,2.117c.2-.388.316-.749.458-1.1.076-.189.1-.415.306-.529q1.721-4.425,3.438-8.851a5.015,5.015,0,0,0,.343-1.805q0-4.655,0-9.31c0-.613.21-.828.811-.828q1.382,0,2.765.007c.433.147.512.259.512.785,0,2.718.027,5.437-.01,8.154a10.215,10.215,0,0,0,.755,4.021c1.385,3.441,2.7,6.909,4.057,10.362a.663.663,0,0,1,.093.469.236.236,0,0,1-.1.078,1.349,1.349,0,0,1-.382.028q-3.3,0-6.6,0c-.554,0-.591-.038-.59-.6a3.079,3.079,0,0,1,.026-.661c.075-.19.246-.192.409-.2.256-.014.513.011.769-.018a.421.421,0,0,0,.43-.382c.022-.213-.153-.388-.423-.425a7.627,7.627,0,0,0-.8-.02.368.368,0,0,1-.411-.409c-.008-.758-.006-1.516,0-2.273,0-.282.155-.392.42-.4.606-.007,1.212,0,1.819,0a1.286,1.286,0,0,0,.45-.047.4.4,0,0,0,.036-.767,1.309,1.309,0,0,0-.548-.091c-.56,0-1.119.006-1.679,0-.415-.008-.488-.085-.5-.494-.007-.233,0-.466-.006-.7a.769.769,0,0,0-.134-.462.393.393,0,0,0-.391-.18.4.4,0,0,0-.343.308,1.788,1.788,0,0,0-.034.487q0,3.358,0,6.716a1.067,1.067,0,0,1-.078.581c-.153.147-.347.114-.529.114-1.42,0-2.84.01-4.259,0a.552.552,0,0,0-.617.424c-.214.628-.475,1.238-.714,1.857a6.85,6.85,0,0,0-.381,1.232.439.439,0,0,1-.221.374,1.358,1.358,0,0,1-.484.05q-3.305,0-6.61,0a.789.789,0,0,1-.568-.116c-.111-.195-.062-.443-.206-.627v-.14a.536.536,0,0,0,0-.42v-.7a.536.536,0,0,0,0-.42Z" transform="translate(0 -0.011)" fill="#d3e6b1"/>
      <path id="Path_626740" data-name="Path 626740" d="M1122.042,590.077a.667.667,0,0,1,.048.408q0,3.565,0,7.129a1.461,1.461,0,0,0,.218.823c.486.777.888,1.6,1.4,2.365v.56a1.043,1.043,0,0,1-1.056.5c-.414-.036-.833-.012-1.249-.015-.021-.138.1-.164.177-.228a.645.645,0,0,0,.181-.867c-.247-.51-.577-.974-.833-1.479-.065-.129-.252-.3.011-.435.047-.008-.012,0,.034-.01.908-.116.944-.157.944-1.1q0-3.5,0-7a1.821,1.821,0,0,1,.039-.556A.215.215,0,0,1,1122.042,590.077Z" transform="translate(-319.768 -205.141)" fill="#81b722"/>
      <path id="Path_626741" data-name="Path 626741" d="M768.095,636.7a.317.317,0,0,1,0,.42Z" transform="translate(0 -247.406)" fill="#cde5fb"/>
      <path id="Path_626742" data-name="Path 626742" d="M768.095,648.689a.316.316,0,0,1,0,.42Z" transform="translate(0 -258.279)" fill="#cbe4fb"/>
      <path id="Path_626743" data-name="Path 626743" d="M851.863,621.578a24.486,24.486,0,0,1,1.249-3.616.4.4,0,0,1,.447-.319c1.655.015,3.311.008,4.966.009l.039.05a1.245,1.245,0,0,1,.053.518q0,1.854,0,3.708a1.608,1.608,0,0,0,.041.486.4.4,0,0,0,.786.036,1.533,1.533,0,0,0,.079-.551c0-.431-.009-.863.005-1.294.012-.372.088-.449.463-.457.618-.012,1.236,0,1.854-.006.457,0,.672-.15.668-.44s-.219-.453-.661-.463c-.583-.012-1.166,0-1.749-.005-.5-.005-.571-.073-.577-.562,0-.233-.013-.466,0-.7-.017-.3.15-.354.416-.352,2.291.008,4.581.005,6.872,0a.752.752,0,0,0,.377-.033v0a.577.577,0,0,1,.427-.116q1.294-.005,2.589,0a.679.679,0,0,1,.432.109l.037.074c-.134.13-.306.093-.464.094-.827,0-1.654,0-2.48,0-.33,0-.353.036-.236.34.294.76.6,1.516.882,2.28a4.745,4.745,0,0,1-2.79,6.121,6.093,6.093,0,0,1-.986.188q-2.27,0-4.539.01c-1.059,0-2.12-.028-3.178.008a5.086,5.086,0,0,1-3.068-.845,1.369,1.369,0,0,1-.681-.488,6.446,6.446,0,0,1-.451-.521,4.678,4.678,0,0,1-.924-2.876A.537.537,0,0,1,851.863,621.578Z" transform="translate(-75.855 -229.98)" fill="#20cb7d"/>
      <path id="Path_626744" data-name="Path 626744" d="M968.155,387.605l-3.449.007-2.1-5.392c-.84-2.155-1.687-4.307-2.513-6.467a5.849,5.849,0,0,1-.355-2.082q-.012-4.531,0-9.061a.794.794,0,0,0-.422-.8c1.049,0,2.1-.008,3.148-.008a.66.66,0,0,1,.759.742c.008.606,0,1.213,0,1.819,0,2.413.021,4.827-.009,7.24a8.476,8.476,0,0,0,.755,3.234q2.08,5.3,4.138,10.6A1.443,1.443,0,0,1,968.155,387.605Z" transform="translate(-173.365 0)" fill="#d3e6b1"/>
      <path id="Path_626745" data-name="Path 626745" d="M989.282,628.452a6.375,6.375,0,0,0,1.685-.628A4.689,4.689,0,0,0,993.2,624.6a5.543,5.543,0,0,0-.545-3.249c-.226-.548-.425-1.108-.656-1.655-.1-.247,0-.277.206-.276,1.05.005,2.1,0,3.149,0a26.155,26.155,0,0,1,1.289,3.487,4.65,4.65,0,0,1-3.666,5.465A24.6,24.6,0,0,1,989.282,628.452Z" transform="translate(-200.53 -231.746)" fill="#20cb7d"/>
      <path id="Path_626746" data-name="Path 626746" d="M778.01,661.4a5.056,5.056,0,0,0,.929,3.284,3.269,3.269,0,0,1-1,.836,5.374,5.374,0,0,1-2.306.9,6.639,6.639,0,0,1-5.287-4.786,1.692,1.692,0,0,1-.041-.238Z" transform="translate(-2.002 -269.799)" fill="#ebf3dd"/>
      <path id="Path_626747" data-name="Path 626747" d="M1097.129,467.891q0-6.019,0-12.038c0-.412.13-.549.536-.553.431,0,.863,0,1.294.007a.62.62,0,0,1,.108.464q0,5.827,0,11.654a.755.755,0,0,1-.094.472.447.447,0,0,1-.32.108c-.4.013-.807.012-1.21,0A.386.386,0,0,1,1097.129,467.891Z" transform="translate(-298.303 -82.95)" fill="#d3e6b1"/>
      <path id="Path_626748" data-name="Path 626748" d="M1116.687,467.884l0-12.576c.338,0,.675-.009,1.013-.008.477,0,.6.122.6.6q0,5.767,0,11.533c0,.151.005.3.008.454l-.026.025a3.661,3.661,0,0,1-1.5.054A.2.2,0,0,1,1116.687,467.884Z" transform="translate(-316.036 -82.952)" fill="#d3e6b1"/>
      <path id="Path_626749" data-name="Path 626749" d="M833.572,528.644l-.712,1.82c-.258-.325-.471-.623-.714-.893a8.023,8.023,0,0,0-1.423-1.169,3.8,3.8,0,0,1-1.678-2.474,13.547,13.547,0,0,1-.092-2.366c0-.3.078-.614-.219-.875h2.255a.615.615,0,0,1,.477.68q.012.857,0,1.714a3.744,3.744,0,0,0,1.784,3.354C833.358,528.505,833.465,528.574,833.572,528.644Z" transform="translate(-54.976 -144.045)" fill="#cae1b4"/>
      <path id="Path_626750" data-name="Path 626750" d="M1096.04,590.055l1.826-.008,0,.03a.592.592,0,0,1,.11.461c0,1.92.007,3.84,0,5.76,0,.759-.328,1.069-1.1,1.084h-.07c-.632,0-.673-.021-.656.618a.476.476,0,0,1-.077.3c-.242,0-.112-.155-.1-.259q.012-3.79.027-7.58A.68.68,0,0,1,1096.04,590.055Z" transform="translate(-297.215 -205.114)" fill="#9dca87"/>
      <path id="Path_626751" data-name="Path 626751" d="M1080.646,675.658c.025.1-.02.209.068.291a1.268,1.268,0,0,0,1.2.461,1.675,1.675,0,0,1,1.047.1c.3.523.61,1.041.9,1.571.37.685.3.93-.328,1.353-1.235,0-2.47.009-3.7,0a.759.759,0,0,1-.689-1.153C1079.618,677.4,1080.14,676.533,1080.646,675.658Z" transform="translate(-281.891 -282.73)" fill="#81b722"/>
      <path id="Path_626752" data-name="Path 626752" d="M827.343,698.312c.485-.18.985-.315,1.46-.529a10.883,10.883,0,0,0,1.849-1.21,7.914,7.914,0,0,0,1.03,1A6.367,6.367,0,0,1,827.343,698.312Z" transform="translate(-53.715 -301.691)" fill="#ebf3dd"/>
      <path id="Path_626753" data-name="Path 626753" d="M924.043,539.331q-.005-3.832-.008-7.664a.539.539,0,0,1,.529-.581.556.556,0,0,1,.553.527,6.461,6.461,0,0,1,.012,1.013c-.021.3.1.373.379.365.653-.019,1.306-.011,1.959,0,.44.005.664.167.7.479a.531.531,0,0,1-.584.617c-.711.008-1.423.011-2.135,0-.239,0-.326.059-.321.31.015.758.011,1.516,0,2.275,0,.209.06.3.278.284.279-.014.56-.01.84,0a.542.542,0,0,1,.575.531.556.556,0,0,1-.576.534,4.07,4.07,0,0,0-1.1.057,6.11,6.11,0,0,0-.032.92c-.008.123.037.252-.034.369a1.238,1.238,0,0,1-1.047-.029Z" transform="translate(-141.373 -151.659)" fill="#81b722"/>
      <path id="Path_626754" data-name="Path 626754" d="M934.515,607.149a6.816,6.816,0,0,1,.065-1.258c0,.279.026.56,0,.837-.025.3.089.368.374.367,2.4-.01,4.795-.006,7.192-.006-.122.1-.268.057-.4.058-2.263,0-4.526.007-6.788,0-.277,0-.421.059-.393.355C934.364,607.407,934.442,607.278,934.515,607.149Z" transform="translate(-150.807 -219.478)" fill="#88c5fb"/>
      <path id="Path_626755" data-name="Path 626755" d="M1099.362,599.167c-.519,0-1.038,0-1.557-.012a.656.656,0,0,1-.687-.55c0-.268.014-.536,0-.8-.008-.2.076-.268.268-.259.233.011.466.005.7,0a.767.767,0,0,0,.854-.868q0-3.164,0-6.328l1.6,0q0,3.69.008,7.38c0,.221.009.443.01.664a.677.677,0,0,1-.744.765Z" transform="translate(-298.295 -205.386)" fill="#9dca87"/>
      <path id="Path_626756" data-name="Path 626756" d="M925.079,619.363c.019.116-.034.242.049.349,0,.279.021.559.008.838-.011.227.067.306.3.3.687-.012,1.374-.007,2.062,0,.314,0,.583.092.659.444.083.381-.166.66-.6.664-.687.007-1.375.012-2.062,0-.266-.006-.374.057-.361.347.023.511.014,1.025,0,1.537a.718.718,0,0,1-.254.654.482.482,0,0,1-.524.057.615.615,0,0,1-.33-.6q0-1.713,0-3.425,0-.577,0-1.153Z" transform="translate(-141.371 -231.692)" fill="#dac5e4"/>
    </g>
  </g>
</svg>
