<svg xmlns="http://www.w3.org/2000/svg" width="57.248" height="49.578" viewBox="0 0 57.248 49.578">
  <g id="a3" transform="translate(11535.463 23497.332)">
    <g id="Group_145955" data-name="Group 145955" transform="translate(-11535.463 -23497.332)">
      <path id="Path_255424" data-name="Path 255424" d="M401.107,56.04H372.486L358.17,80.831l14.316,24.786h28.621l14.311-24.786Z" transform="translate(-358.17 -56.04)" fill="#f4522b" opacity="0.4"/>
      <path id="Path_255425" data-name="Path 255425" d="M402.068,59.52H375.476l-13.3,23.026,13.3,23.026h26.592l13.291-23.026Z" transform="translate(-360.146 -57.754)" fill="none" stroke="#6bffb8" stroke-miterlimit="10" stroke-width="0.98" stroke-dasharray="2"/>
    </g>
    <g id="Group_899579" data-name="Group 899579" transform="translate(-11518.161 -23485.426)">
      <path id="Path_626785" data-name="Path 626785" d="M968.732,660.188a.607.607,0,0,1-.036.533,8.223,8.223,0,0,1-4.5,4.076c-.4.138-.826.17-1.235.268h-.855a.514.514,0,0,0-.352,0H961.5a7.338,7.338,0,0,1-1.789-.339.962.962,0,0,1-.191-.061c-.207-.12-.341-.064-.477.133a.464.464,0,0,1-.662.158,1.172,1.172,0,0,1-.031-.374q0-2.972,0-5.943a.742.742,0,0,1,.06-.416.847.847,0,0,1,.772,0l.006,2.914a.408.408,0,0,1,.067.31c0,.335,0,.67,0,1,0,.254.035.279.284.21q1.379-.382,2.758-.765c2.048-.571,4.1-1.134,6.144-1.705C968.537,660.165,968.635,660.116,968.732,660.188Z" transform="translate(-947.11 -639.302)" fill="#84b74e"/>
      <path id="Path_626786" data-name="Path 626786" d="M760.709,703.354a2.415,2.415,0,0,0-.6-.124,6.846,6.846,0,0,1-3.592-2.16,9.64,9.64,0,0,1-1.412-1.942.7.7,0,0,1-.087-.659.416.416,0,0,1,.294.021c2.93.821,5.865,1.627,8.794,2.451.17.048.376.044.476.24a9.549,9.549,0,0,1,.009,1.533c-.041.143-.169.172-.286.212a6.085,6.085,0,0,1-2.044.4.131.131,0,0,0-.093.026Z" transform="translate(-753.966 -677.591)" fill="#84b74e"/>
      <path id="Path_626787" data-name="Path 626787" d="M958.652,284.1a.873.873,0,0,1,.559.956c-.024.442-.013.886,0,1.329a.736.736,0,0,1-.756.728.434.434,0,0,1-.082-.33q0-1.175,0-2.351a.458.458,0,0,1,.081-.332Z" transform="translate(-947.129 -284.096)" fill="#d1f38a"/>
      <path id="Path_626788" data-name="Path 626788" d="M945.722,284.1v3.013a.73.73,0,0,1-.753-.741c-.009-.5,0-1.006,0-1.51a.847.847,0,0,1,.553-.763Z" transform="translate(-934.4 -284.096)" fill="#d1f38a"/>
      <path id="Path_626790" data-name="Path 626790" d="M1025.976,794.779a.29.29,0,0,1,.352,0Z" transform="translate(-1011.333 -769.017)" fill="#62a711"/>
      <path id="Path_626791" data-name="Path 626791" d="M843.27,385.8l-.049.049a.386.386,0,0,1-.282.082c-1.163,0-2.326.01-3.49-.005-1.165.015-2.329.005-3.494,0a.351.351,0,0,1-.279-.089,5.915,5.915,0,0,1-2.511-3.829,5.671,5.671,0,0,1,1.678-5.279,6.247,6.247,0,0,1,4.6-1.862.333.333,0,0,1,.084.279q0,2.589,0,5.179a.634.634,0,0,1-.018.149.213.213,0,0,1-.039.08c-.133.053-.2-.053-.273-.124-.254-.244-.5-.5-.749-.743a.66.66,0,0,0-.963-.053.668.668,0,0,0,0,1q.513.534,1.048,1.048a.712.712,0,0,1,.232.556c-.007,1.055,0,2.11,0,3.165,0,.316.005.32.325.321.134,0,.268,0,.4,0,.245-.008.49-.007.735,0,.922-.016,1.843-.005,2.765-.005A.359.359,0,0,1,843.27,385.8Z" transform="translate(-827.972 -370.32)" fill="#d1f38a"/>
      <path id="Path_626792" data-name="Path 626792" d="M959.9,380.269q0-2.845-.007-5.69a4.409,4.409,0,0,1,1.583.168,6.013,6.013,0,0,1,4.659,4.626,5.7,5.7,0,0,1-1.995,5.815c-.13.116-.279.213-.419.319l-3.062-.01c-.093-.085-.074-.2-.074-.306,0-1.088,0-2.176,0-3.263a.668.668,0,0,1,.214-.513c.359-.351.716-.7,1.064-1.066a.668.668,0,0,0,.134-.847.7.7,0,0,0-1.183-.05c-.21.24-.434.464-.66.688C960.08,380.208,960.018,380.3,959.9,380.269Z" transform="translate(-948.572 -370.01)" fill="#d1f38a"/>
      <path id="Path_626793" data-name="Path 626793" d="M765.482,673.727q-2.228-.625-4.457-1.25-2.494-.695-4.99-1.384a.412.412,0,0,1-.068-.033.638.638,0,0,1,.348-.439,8.269,8.269,0,0,1,5.733-.824,6.679,6.679,0,0,1,3.215,2c.069.072.141.141.212.211a.268.268,0,0,1,.084.224c.009.422.008.844,0,1.266A.291.291,0,0,1,765.482,673.727Z" transform="translate(-754.915 -650.182)" fill="#acd262"/>
      <path id="Path_626794" data-name="Path 626794" d="M984.464,671.06l-8.607,2.392c-.225.062-.456.106-.676.181-.2.069-.271.031-.265-.191.013-.477.005-.955.006-1.432.3-.285.6-.581.913-.853a6.4,6.4,0,0,1,5.658-1.434,10.033,10.033,0,0,1,2.474.811A.822.822,0,0,1,984.464,671.06Z" transform="translate(-962.841 -650.174)" fill="#acd262"/>
      <path id="Path_626795" data-name="Path 626795" d="M945.55,592.936h3.776q0,.79,0,1.58a1.769,1.769,0,0,1-1.794,1.792l-1.229,0-.748.005a.865.865,0,0,1-.753-.006h-.016c.077-.176.239-.119.37-.127.294-.018.314-.028.315-.321,0-.846,0-1.693,0-2.539A.552.552,0,0,1,945.55,592.936Z" transform="translate(-934.23 -577.389)" fill="#c2dae1"/>
      <path id="Path_626796" data-name="Path 626796" d="M888.782,592.813c0,1.026,0,2.052.007,3.078,0,.208-.07.253-.259.249a.85.85,0,0,0-.511.045,11.768,11.768,0,0,1-1.578-.048,1.759,1.759,0,0,1-1.429-1.672c-.006-.553,0-1.106,0-1.659Z" transform="translate(-877.461 -577.267)" fill="#e1eff6"/>
      <path id="Path_626797" data-name="Path 626797" d="M944.868,659.959l.753.006q0,3.389,0,6.778a.824.824,0,0,1-.754-.537q0-.811,0-1.622,0-.859-.006-1.718Q944.862,661.412,944.868,659.959Z" transform="translate(-934.296 -641.039)" fill="#83b621"/>
      <path id="Path_626798" data-name="Path 626798" d="M796.777,346.368a.7.7,0,0,1,.383-.677.674.674,0,0,1,.781.041,9.574,9.574,0,0,1,1.256,1.258A.746.746,0,0,1,798.119,348c-.413-.378-.8-.785-1.189-1.188A.6.6,0,0,1,796.777,346.368Z" transform="translate(-793.671 -342.492)" fill="#d1f38a"/>
      <path id="Path_626799" data-name="Path 626799" d="M1071.773,364.479a.745.745,0,0,1-.233.564c-.343.343-.682.691-1.03,1.028a.745.745,0,0,1-1.078.022.737.737,0,0,1-.011-1.059c.35-.371.713-.73,1.08-1.084a.719.719,0,0,1,.836-.145A.708.708,0,0,1,1071.773,364.479Z" transform="translate(-1052.383 -359.722)" fill="#d1f38a"/>
      <path id="Path_626800" data-name="Path 626800" d="M736.562,495.418c-.251,0-.5.007-.753,0a.744.744,0,0,1-.73-.69.725.725,0,0,1,.62-.788,7.735,7.735,0,0,1,1.775,0,.723.723,0,0,1,.62.787.742.742,0,0,1-.729.69C737.1,495.425,736.829,495.418,736.562,495.418Z" transform="translate(-735.076 -483.327)" fill="#d1f38a"/>
      <path id="Path_626801" data-name="Path 626801" d="M1126.422,495.487c-.243,0-.485.006-.728,0a.75.75,0,0,1-.755-.693.73.73,0,0,1,.645-.793,8.9,8.9,0,0,1,1.727,0,.729.729,0,0,1,.643.794.745.745,0,0,1-.73.691c-.267.011-.535,0-.8,0Z" transform="translate(-1105.313 -483.394)" fill="#d1f38a"/>
      <path id="Path_626802" data-name="Path 626802" d="M958.446,465.433a6.4,6.4,0,0,0,.826-.836.784.784,0,0,1,1.385.131.738.738,0,0,1-.17.807q-.573.581-1.154,1.154a.37.37,0,0,0-.136.281c.006,1.23.007,2.461.009,3.691l-.757,0a.43.43,0,0,1-.085-.331q0-2.284,0-4.567a.427.427,0,0,1,.079-.332Z" transform="translate(-947.123 -455.173)" fill="#a0c556"/>
      <path id="Path_626803" data-name="Path 626803" d="M917.239,465.472q0,2.615.006,5.23c-.759.027-.759.027-.759-.716,0-.963,0-1.926,0-2.888a.524.524,0,0,0-.176-.417c-.368-.354-.726-.719-1.086-1.081a.729.729,0,0,1-.019-1.089.711.711,0,0,1,1.078.033C916.6,464.855,916.922,465.163,917.239,465.472Z" transform="translate(-905.918 -455.209)" fill="#a0c556"/>
    </g>
  </g>
</svg>
