<svg xmlns="http://www.w3.org/2000/svg" width="58.618" height="50.764" viewBox="0 0 58.618 50.764">
  <g id="a4" transform="translate(11484.53 23497.873)">
    <g id="Group_899583" data-name="Group 899583" transform="translate(-12174.681 -23773.383)">
      <path id="Path_626761" data-name="Path 626761" d="M925.971,287.432a1.72,1.72,0,0,1,.048-3.236c.056-.023.133-.021.154-.1h.718a2.069,2.069,0,0,1,1.136.8,1.717,1.717,0,0,1-.862,2.545A.921.921,0,0,1,925.971,287.432Z" transform="translate(-206.351)" fill="#aeecc0"/>
      <path id="Path_626762" data-name="Path 626762" d="M926.174,744.952c-.021-.079-.1-.078-.154-.1a1.72,1.72,0,0,1-.049-3.236.921.921,0,0,1,1.194-.005,1.713,1.713,0,0,1-.171,3.279c-.042.012-.084.015-.1.063Z" transform="translate(-206.351 -427.445)" fill="#aeecc0"/>
      <path id="Path_626763" data-name="Path 626763" d="M1164.953,515.806c-.078.024-.074.1-.1.156a1.72,1.72,0,0,1-3.243.049.921.921,0,0,1,0-1.194,1.718,1.718,0,0,1,3.274.171c.012.042.016.084.064.1Z" transform="translate(-427.446 -214.612)" fill="#aeecc0"/>
      <path id="Path_626764" data-name="Path 626764" d="M706.843,519.971a1.44,1.44,0,0,1-2.68-.164.526.526,0,0,0-.067-.1v-.653a1.864,1.864,0,0,1,.751-.932,1.432,1.432,0,0,1,2,.666A.9.9,0,0,1,706.843,519.971Z" transform="translate(0 -218.577)" fill="#aeecc0"/>
      <path id="Path_626765" data-name="Path 626765" d="M784.977,388.927a9.981,9.981,0,0,1-1.9-2.971,10.36,10.36,0,0,1-.847-3.683,1.511,1.511,0,0,1,0-1.188,10.858,10.858,0,0,1,2.559-6.47c.055-.066.122-.123.183-.184a1.993,1.993,0,0,1,.854-.9,11.3,11.3,0,0,1,3.789-2.208,10.033,10.033,0,0,1,2.921-.554,1.281,1.281,0,0,1,1.2,0,10.751,10.751,0,0,1,6.707,2.762,1.658,1.658,0,0,1,.843.838,10.942,10.942,0,0,1,2.559,5.039,6.8,6.8,0,0,1,.2,1.608,1.344,1.344,0,0,1,0,1.324,10.349,10.349,0,0,1-1.36,4.695,10.972,10.972,0,0,1-1.395,1.953,1.66,1.66,0,0,1-.844.838,10.876,10.876,0,0,1-5,2.549,7.88,7.88,0,0,1-1.7.213,1.281,1.281,0,0,1-1.2,0,10.59,10.59,0,0,1-6.651-2.744A1.849,1.849,0,0,1,784.977,388.927Z" transform="translate(-72.924 -80.877)" fill="#ccefd6"/>
      <path id="Path_626766" data-name="Path 626766" d="M1090.994,333.484a2.3,2.3,0,0,1,3.634-2.728,2.317,2.317,0,0,1,.239,2.984,2.29,2.29,0,0,1-2.966.653A1.255,1.255,0,0,1,1090.994,333.484Z" transform="translate(-361.377 -42.992)" fill="#aeecc0"/>
      <path id="Path_626767" data-name="Path 626767" d="M1118.094,531.184a3.631,3.631,0,0,0,0-1.324.247.247,0,0,0,.2.08l2.844-.015a1.537,1.537,0,0,0,0,1.194l-2.844-.015A.247.247,0,0,0,1118.094,531.184Z" transform="translate(-386.972 -229.72)" fill="#65dcb8"/>
      <path id="Path_626768" data-name="Path 626768" d="M1065.065,382.073a2.208,2.208,0,0,0,.906.91.613.613,0,0,0-.168.086q-1,1-1.988,2.005a8.192,8.192,0,0,0-.843-.838q1.02-1.007,2.038-2.015C1065.044,382.186,1065.047,382.123,1065.065,382.073Z" transform="translate(-335.448 -91.581)" fill="#65dcb8"/>
      <path id="Path_626769" data-name="Path 626769" d="M943.048,337.664a4.551,4.551,0,0,0-1.2,0c.037-.821.03-1.642,0-2.463a1.536,1.536,0,0,0,1.194.005Q943.047,336.437,943.048,337.664Z" transform="translate(-222.231 -47.772)" fill="#65dcb8"/>
      <path id="Path_626770" data-name="Path 626770" d="M1091.9,679.843a2.29,2.29,0,0,1,2.966.653,2.3,2.3,0,0,1-3.2,3.218,2.287,2.287,0,0,1-.674-2.962A1.255,1.255,0,0,1,1091.9,679.843Z" transform="translate(-361.377 -369.641)" fill="#ccefd6"/>
      <path id="Path_626771" data-name="Path 626771" d="M1065.97,654.057a2.207,2.207,0,0,0-.906.909c-.017-.05-.021-.113-.055-.147q-1.016-1.011-2.039-2.016a8.227,8.227,0,0,0,.844-.838q.993,1,1.986,2.008A.263.263,0,0,0,1065.97,654.057Z" transform="translate(-335.447 -343.855)" fill="#65dcb8"/>
      <path id="Path_626772" data-name="Path 626772" d="M941.849,707.072a4.549,4.549,0,0,0,1.2,0l0,2.455a1.536,1.536,0,0,0-1.194.005C941.879,708.714,941.886,707.893,941.849,707.072Z" transform="translate(-222.232 -395.364)" fill="#65dcb8"/>
      <path id="Path_626773" data-name="Path 626773" d="M744.757,334.379a2.3,2.3,0,1,1,1-2.81,2.331,2.331,0,0,1-.156,1.975A1.15,1.15,0,0,1,744.757,334.379Z" transform="translate(-34.79 -42.988)" fill="#aeecc0"/>
      <path id="Path_626774" data-name="Path 626774" d="M794.025,383.886a2.411,2.411,0,0,0,.844-.835l2.1,2.1-.854.9a.174.174,0,0,0-.045-.149Z" transform="translate(-84.058 -92.495)" fill="#65dcb8"/>
      <path id="Path_626775" data-name="Path 626775" d="M748.645,530.9v1.188l-2.468,0a1.42,1.42,0,0,0,0-1.185Z" transform="translate(-39.334 -230.69)" fill="#65dcb8"/>
      <path id="Path_626776" data-name="Path 626776" d="M745.5,680.549a2.244,2.244,0,0,1-.142,2.512,2.29,2.29,0,1,1-3.239-3.171,2.2,2.2,0,0,1,2.447-.216c.029.014.06.026.09.038A1.155,1.155,0,0,1,745.5,680.549Z" transform="translate(-34.688 -369.501)" fill="#aeecc0"/>
      <path id="Path_626777" data-name="Path 626777" d="M794.875,654.029a2.435,2.435,0,0,0-.844-.836l2.04-2.013a.175.175,0,0,0,.046-.149,8.356,8.356,0,0,0,.913.915.205.205,0,0,0-.17.078Z" transform="translate(-84.064 -342.981)" fill="#65dcb8"/>
      <path id="Path_626778" data-name="Path 626778" d="M952.321,532.134a9.168,9.168,0,0,1-5.075,7.854,8.78,8.78,0,0,1-4.07.964.534.534,0,0,1-.576-.379.524.524,0,0,1,.251-.669,1.679,1.679,0,0,1,.628-.123,7.844,7.844,0,0,0,6.835-4.417,6.858,6.858,0,0,0,.835-3.108,5.134,5.134,0,0,1,.063-.579.555.555,0,0,1,1.108.065C952.324,531.873,952.321,532,952.321,532.134Z" transform="translate(-222.904 -230.947)" fill="#ccefd6"/>
      <path id="Path_626779" data-name="Path 626779" d="M953.544,447.685a2.224,2.224,0,0,1-2.283-2.284,2.3,2.3,0,0,1,4.6.032A2.225,2.225,0,0,1,953.544,447.685Z" transform="translate(-231.03 -148.643)" fill="#aeecc0"/>
      <path id="Path_626780" data-name="Path 626780" d="M848.813,480.084a1.688,1.688,0,0,1-1.741,1.682,1.718,1.718,0,1,1,1.741-1.682Z" transform="translate(-132.056 -181.554)" fill="#aeecc0"/>
      <path id="Path_626781" data-name="Path 626781" d="M924.966,559.532a1.729,1.729,0,0,1,1.743-1.681,1.659,1.659,0,0,1,1.686,1.7,1.632,1.632,0,0,1-1.734,1.726A1.654,1.654,0,0,1,924.966,559.532Z" transform="translate(-206.449 -255.884)" fill="#aeecc0"/>
      <path id="Path_626782" data-name="Path 626782" d="M890.492,628.718a.6.6,0,0,1-.589.573.643.643,0,0,1-.563-.605.635.635,0,0,1,.614-.554A.6.6,0,0,1,890.492,628.718Z" transform="translate(-173.15 -321.576)" fill="#aeecc0"/>
      <path id="Path_626783" data-name="Path 626783" d="M845.9,576.445a.642.642,0,0,1-.56-.609.614.614,0,0,1,.587-.541.649.649,0,0,1,.563.574A.6.6,0,0,1,845.9,576.445Z" transform="translate(-132.027 -272.189)" fill="#aeecc0"/>
    </g>
    <g id="Group_899582" data-name="Group 899582">
      <path id="Path_626804" data-name="Path 626804" d="M375.186,349.57H346.5L332.16,374.409,346.5,399.253h28.685l14.345-24.844Z" transform="translate(-11816.066 -23846.902)" fill="none" stroke="#28965a" stroke-miterlimit="10" stroke-width="1.08" stroke-dasharray="2"/>
      <path id="Path_626805" data-name="Path 626805" d="M377.809,355.53H351.961L339.04,377.911,351.961,400.3h25.847l12.926-22.385Z" transform="translate(-11820.107 -23850.402)" fill="none" stroke="#28965a" stroke-miterlimit="10" stroke-width="0.97"/>
      <path id="Path_626806" data-name="Path 626806" d="M375.384,355.53H351.154L339.04,376.511,351.154,397.5h24.231L387.5,376.511Z" transform="translate(-11817.332 -23850.289)" fill="none" stroke="#169788" stroke-miterlimit="10" stroke-width="0.97"/>
    </g>
  </g>
</svg>
