<svg xmlns="http://www.w3.org/2000/svg" xmlns:xlink="http://www.w3.org/1999/xlink" width="1328" height="823" viewBox="0 0 1328 823">
  <defs>
    <clipPath id="clip-path">
      <path id="Trazado_273225" data-name="Trazado 273225" d="M0,0H1328V823H0Z" fill="#93eac2"/>
    </clipPath>
    <linearGradient id="linear-gradient" x1="0.522" y1="0.047" x2="0.414" y2="0.702" gradientUnits="objectBoundingBox">
      <stop offset="0" stop-color="#169788"/>
      <stop offset="0.551" stop-color="#81b722"/>
      <stop offset="1" stop-color="#81b722" stop-opacity="0"/>
    </linearGradient>
  </defs>
  <g id="bg-1-1" transform="translate(-136 -10120.445)">
    <g id="Enmascarar_grupo_130555" data-name="Enmascarar grupo 130555" transform="translate(136 10120.445)" opacity="0.2" clip-path="url(#clip-path)">
      <path id="Trazado_273223" data-name="Trazado 273223" d="M1458.059,1903.907c214.448-128.469,450.948-202.3,690.194-113.51,474.584,176.127,474.06,137.223,474.06,137.223L2598.358,863.452H1024.737l23.955,1140.606S1213.834,2050.215,1458.059,1903.907Z" transform="translate(-1095.101 -938.147)" opacity="0.5" fill="url(#linear-gradient)"/>
      <path id="Trazado_273224" data-name="Trazado 273224" d="M1065.416,394.274l-36.369,62.973,36.369,62.988h72.722l36.369-62.973-36.369-62.989Zm72.722,277.864h-72.722l-36.369-62.989,36.369-62.942h72.722l36.369,62.973ZM887,394.274l36.353,62.973L887,520.235H814.265l-36.353-62.973,36.353-62.989ZM762.848,166.143l36.369,62.989-36.369,62.942H690.126L653.758,229.1l36.353-62.958ZM384.716,242.372l36.353,62.989-36.353,62.973H311.994L275.641,305.36l36.353-62.989Zm-251.135,0,36.369,62.989-36.369,62.973H60.812L24.49,305.36l36.322-62.989ZM511.7,166.143l36.369,62.973L511.7,292.089H438.975l-36.353-62.973,36.353-62.973Zm124.154,76.244,36.369,62.989-36.369,62.958H563.13L526.776,305.36l36.353-62.989Zm-375.29-76.244,36.369,62.989L260.562,292.1H187.84l-36.353-62.989,36.353-62.973ZM762.848,318.014,799.217,381l-36.369,62.973H690.111L653.758,381l36.353-62.989Zm251.135,0L1050.352,381l-36.291,62.973h-72.8L904.909,381l36.353-62.989ZM887,546.206l36.353,62.973L887,672.168H814.265l-36.353-62.989,36.353-62.973Zm-251.151,0,36.369,62.973-36.369,62.958H563.13l-36.353-62.989,36.353-62.942Zm127-76.26,36.369,62.973-36.369,62.958H690.111l-36.353-62.989,36.353-62.973Zm553.7,228.131h72.737l36.353,62.973-36.353,62.989h-72.737L1280.2,761.05ZM511.7,469.915l36.369,62.973-36.369,63H438.975L402.622,532.9l36.353-62.973Zm124.154-75.7,36.369,62.973-36.369,63.05H563.13l-36.353-62.988,36.353-62.973ZM511.7,317.967l36.369,62.973L511.7,443.914H438.975l-36.353-62.973,36.353-62.989ZM384.716,394.212,421.069,457.2l-36.353,62.973H311.994L275.641,457.2l36.353-62.989Zm629.268,75.7,36.369,62.989-36.291,62.973h-72.8l-36.353-63L941.262,469.9Zm0,277.864H941.262l-36.353-62.973,36.353-62.988h72.8l36.369,62.988Zm178.429-607.607L1156.044,77.2l36.369-62.989h72.722L1301.426,77.2l-36.307,62.973ZM887,216.432H814.265l-36.353-62.973,36.353-63.019H887l36.353,62.989Zm251.135,0h-72.722l-36.369-62.973,36.369-63.02h72.722l36.369,62.989ZM887,242.372l36.353,62.989L887,368.333H814.265L777.912,305.36l36.353-62.989Zm-251.151-25.94H563.13l-36.353-62.973,36.353-63.02h72.722l36.369,62.989ZM438.975,140.187,402.622,77.2,438.975,14.21H511.7L548.066,77.2,511.7,140.187Zm251.136,0L653.758,77.214l36.369-62.989h72.722l36.369,62.989-36.369,62.958Zm626.44,76.26-36.369-62.973,36.369-63.035h72.737l36.353,62.989L1389.273,216.4Zm0,303.8L1280.2,457.262l36.353-62.973h72.737l36.353,62.988-36.353,62.973Zm0,151.9L1280.2,609.164l36.353-62.958h72.722l36.369,62.973-36.353,62.989Zm0-303.8-36.369-62.973,36.369-62.989h72.737l36.353,62.989-36.353,62.973ZM941.262,140.172,904.909,77.2,941.262,14.21h72.8L1050.414,77.2l-36.353,62.973Zm-556.546,76.26H311.994l-36.43-62.973,36.43-63.02h72.722l36.353,62.989Zm880.419,379.446h-72.722L1156.044,532.9l36.369-62.989h72.722l36.291,62.989Zm0-151.9h-72.722L1156.044,381l36.369-62.989h72.707L1301.426,381Zm-127-201.6,36.369,62.989-36.369,62.973h-72.722l-36.369-62.973,36.369-62.989Zm-124.077-76.229,36.353,62.989-36.353,62.958h-72.8L904.909,229.1l36.353-62.958Zm251.135,0,36.23,62.958-36.353,62.989h-72.66L1156.044,229.1l36.369-62.958ZM133.581,216.432H60.812L24.49,153.459l36.322-63.02h72.768l36.369,62.989ZM1265.135,747.779h-72.722l-36.369-62.973,36.369-62.988h72.707l36.307,62.988ZM187.84,140.172,151.471,77.2,187.84,14.21h72.722L296.931,77.2l-36.369,62.989ZM1192.413,773.719h72.707l36.307,62.942-36.291,63.019h-72.722l-36.369-63.019Z" transform="translate(-24.49 -73.746)" fill="#fff" opacity="0.6"/>
    </g>
  </g>
</svg>
