<svg xmlns="http://www.w3.org/2000/svg" xmlns:xlink="http://www.w3.org/1999/xlink" width="715" height="257.496" viewBox="0 0 715 257.496">
  <defs>
    <clipPath id="clip-path">
      <rect id="Rectangle" width="715" height="257.496" rx="24" fill="#dbefec"/>
    </clipPath>
  </defs>
  <g id="Grupo_897867" data-name="Grupo 897867" transform="translate(-702 -1124)">
    <rect id="Rectangle-2" data-name="Rectangle" width="715" height="257.496" rx="24" transform="translate(702 1124)" fill="#dbefec"/>
    <g id="Grupo_130536" data-name="Grupo 130536" transform="translate(702 1124)" clip-path="url(#clip-path)">
      <path id="Trazado_252718" data-name="Trazado 252718" d="M683,160.229,660,184.422,683,208.622h46.005l23.008-24.194-23.008-24.2Zm46.005,106.754H683L660,242.782,683,218.6h46.005l23.008,24.194ZM570.135,160.229l23,24.194-23,24.2H524.12l-23-24.194,23-24.2ZM491.593,72.582l23.008,24.2-23.008,24.182H445.587L422.579,96.77l23-24.188ZM252.377,101.869l23,24.2-23,24.194H206.372l-23-24.194,23-24.2Zm-158.874,0,23.008,24.2L93.5,150.262H47.468L24.49,126.068l22.978-24.2ZM332.709,72.582l23.008,24.194L332.709,120.97H286.7l-23-24.194,23-24.194Zm78.543,29.293,23.008,24.2-23.008,24.188H365.246l-23-24.194,23-24.2ZM173.835,72.582l23.008,24.2-23.008,24.194H127.829l-23-24.2,23-24.194ZM491.593,130.93l23.008,24.2-23.008,24.194H445.577l-23-24.194,23-24.2Zm158.874,0,23.008,24.2-22.959,24.194H604.461l-23-24.194,23-24.2ZM570.135,218.6l23,24.194-23,24.2H524.12l-23-24.2,23-24.194Zm-158.884,0,23.008,24.194-23.008,24.188H365.246l-23-24.2,23-24.182Zm80.341-29.3L514.6,213.5l-23.008,24.188H445.577l-23-24.2,23-24.194Zm350.285,87.647h46.015l23,24.194-23,24.2H841.878l-23-24.2ZM332.709,189.29l23.008,24.194L332.709,237.69H286.7l-23-24.2,23-24.194ZM411.252,160.2,434.259,184.4l-23.008,24.224H365.246l-23-24.2,23-24.194Zm-78.543-29.293,23.008,24.194L332.709,179.3H286.7l-23-24.194,23-24.2ZM252.377,160.2l23,24.2-23,24.194H206.372l-23-24.194,23-24.2Zm398.09,29.085,23.008,24.2-22.959,24.194H604.461l-23-24.206,23-24.194Zm0,106.754H604.461l-23-24.194,23-24.2h46.055l23.008,24.2ZM763.345,62.6,740.337,38.41l23.008-24.2h46.005l22.959,24.2L809.341,62.6ZM570.135,91.9H524.12l-23-24.194,23-24.212h46.015l23,24.2Zm158.874,0H683L660,67.709,683,43.5h46.005l23.008,24.2Zm-158.874,9.966,23,24.2-23,24.194H524.12l-23-24.194,23-24.2ZM411.252,91.9H365.246l-23-24.194,23-24.212h46.006l23.008,24.2ZM286.7,62.61l-23-24.2,23-24.2h46.006l23.008,24.2-23.008,24.2Zm158.874,0-23-24.194,23.008-24.2h46.006l23.008,24.2L491.593,62.6Zm396.3,29.3L818.87,67.714,841.878,43.5h46.015l23,24.2L887.884,91.891Zm0,116.72-23-24.2,23-24.194h46.015l23,24.2-23,24.194Zm0,58.36-23-24.2,23-24.188h46.006l23.008,24.194-23,24.2Zm0-116.72L818.87,126.074l23.008-24.2h46.015l23,24.2-23,24.194ZM604.461,62.6l-23-24.194,23-24.2h46.055l23,24.2-23,24.194ZM252.377,91.9H206.372L183.325,67.709,206.372,43.5h46.006l23,24.2ZM809.351,237.684H763.345L740.337,213.49l23.008-24.2h46.005l22.959,24.2Zm0-58.36H763.345L740.337,155.13l23.008-24.2h46l22.968,24.2Zm-80.341-77.455,23.008,24.2-23.008,24.194H683L660,126.068,683,101.869ZM650.516,72.582l23,24.2-23,24.188H604.461l-23-24.2,23-24.188Zm158.874,0,22.92,24.188-23,24.2H763.345l-23.008-24.2,23.008-24.188ZM93.5,91.9H47.468L24.49,67.709,47.468,43.5H93.5l23.008,24.2ZM809.351,296.044H763.345L740.337,271.85l23.008-24.2h46l22.968,24.2ZM127.829,62.6,104.821,38.41l23.008-24.2h46.006l23.008,24.2-23.008,24.2ZM763.345,306.01h46l22.968,24.182L809.351,354.4H763.345l-23.008-24.212Z" transform="translate(-151.892 -100.067)" fill="#fff" opacity="0.2"/>
    </g>
  </g>
</svg>
