<svg xmlns="http://www.w3.org/2000/svg" width="1240" height="558" viewBox="0 0 1240 558">
  <g id="card-linea" transform="translate(0 22)" opacity="0.4">
    <g id="Rectangle_44580" data-name="Rectangle 44580" transform="translate(0.449 -22)" fill="#dbefec" stroke="#e8e8e8" stroke-width="1">
      <rect width="1239.551" height="558" stroke="none"/>
      <rect x="0.5" y="0.5" width="1238.551" height="557" fill="none"/>
    </g>
    <path id="Path_255559" data-name="Path 255559" d="M231.526,316.532l20.9-37.669-20.9-37.678h-41.8l-20.9,37.669,20.9,37.678Zm-41.8-166.211h41.8L252.429,188l-20.9,37.65h-41.8l-20.9-37.669ZM334.068,316.532l-20.894-37.669,20.894-37.678h41.805l20.894,37.669-20.894,37.678Zm71.356,136.462-20.9-37.678,20.9-37.65h41.8l20.9,37.669-20.894,37.66Zm217.328-45.6-20.894-37.678,20.894-37.669h41.8l20.894,37.669L664.548,407.4Zm144.338,0-20.9-37.678,20.9-37.669h41.823l20.876,37.669L808.912,407.4Zm-217.319,45.6-20.9-37.669,20.9-37.669h41.8l20.894,37.669-20.894,37.669Zm-71.356-45.608-20.9-37.678,20.9-37.66h41.8L541.1,369.718,520.21,407.4Zm215.694,45.608-20.9-37.678,20.9-37.669h41.8L756.8,415.325,735.9,452.994ZM405.424,362.149l-20.9-37.678,20.9-37.669h41.805l20.894,37.669-20.894,37.678Zm-144.338,0-20.9-37.678L261.042,286.8h41.841l20.894,37.669-20.894,37.678Zm72.981-136.5-20.894-37.669L334.068,150.3h41.805l20.894,37.678L375.873,225.65Zm144.346,0-20.9-37.669,20.9-37.66h41.8L541.1,188,520.21,225.65Zm-72.99,45.617-20.9-37.669,20.9-37.66h41.805l20.894,37.678-20.894,37.669ZM87.189,134.8H45.384L24.49,97.135,45.384,59.457H87.189l20.894,37.678ZM549.77,271.285l-20.9-37.669,20.9-37.687h41.8l20.894,37.678-20.894,37.669Zm-71.356,45.284-20.9-37.669,20.9-37.715h41.8L541.1,278.863,520.21,316.532Zm71.356,45.608-20.9-37.669,20.9-37.669h41.8l20.894,37.669-20.894,37.678Zm72.981-45.608-20.894-37.678,20.894-37.669h41.8l20.894,37.669-20.894,37.678ZM261.086,271.285l-20.9-37.678,20.858-37.669h41.841l20.894,37.687-20.894,37.669Zm0-166.211h41.8l20.894,37.669-20.894,37.678H261.042l-20.9-37.678ZM158.536,468.529l20.9,37.669-20.9,37.678h-41.8L95.882,506.2l20.867-37.669Zm175.531-45.617h41.805l20.894,37.669-20.894,37.7H334.068L313.174,460.6Zm-144.337,0h41.8l20.9,37.669-20.9,37.7h-41.8l-20.9-37.678ZM334.068,407.4l-20.894-37.678,20.894-37.669h41.805l20.894,37.669L375.873,407.4Zm144.346,15.517h41.8L541.1,460.581l-20.894,37.7h-41.8l-20.9-37.678ZM591.567,468.52,612.46,506.2l-20.894,37.678h-41.8l-20.9-37.678,20.9-37.678Zm-144.338,0,20.894,37.669-20.9,37.678h-41.8l-20.9-37.678,20.9-37.66ZM87.189,422.9l20.9,37.669-20.9,37.706H45.384L24.49,460.6l20.9-37.669Zm0-181.728,20.894,37.678L87.189,316.523H45.384L24.49,278.844l20.894-37.669Zm0-90.864,20.894,37.678L87.189,225.65h-41.8l-20.9-37.669L45.384,150.3Zm0,181.728,20.9,37.669-20.9,37.678H45.384L24.49,369.708l20.894-37.669Zm215.694,136.49L323.776,506.2l-20.894,37.678H261.042L240.148,506.2l20.894-37.669Zm319.869-45.617h41.8l20.938,37.669-20.938,37.7h-41.8L601.858,460.6ZM116.74,195.938h41.8l20.9,37.669-20.9,37.678h-41.8L95.882,233.607Zm0,90.864h41.8l20.9,37.669-20.9,37.678H116.749L95.882,324.47ZM189.73,407.4l-20.9-37.678,20.9-37.669h41.8l20.9,37.669-20.9,37.678Zm71.312,45.6-20.894-37.678,20.894-37.66h41.841l20.894,37.678-20.894,37.66Zm-144.337,0-20.823-37.66,20.894-37.678h41.761l20.9,37.678-20.9,37.66Zm650.385-30.082h41.823l20.876,37.669-20.876,37.7H767.089l-20.9-37.678ZM116.74,105.074h41.8l20.9,37.669-20.9,37.678H116.749L95.882,142.743ZM735.9,468.529l20.9,37.669-20.9,37.678h-41.8l-20.9-37.678,20.9-37.678ZM158.536,89.557H116.749L95.882,51.907l20.858-37.7h41.8l20.9,37.7Z" transform="translate(-24.49 -8.209)" fill="#addbd5" opacity="0.35"/>
  </g>
</svg>
