<svg xmlns="http://www.w3.org/2000/svg" width="70" height="70" viewBox="0 0 70 70">
  <g id="Grupo_899386" data-name="Grupo 899386" transform="translate(-343 -1241.25)">
    <path id="Trazado_171681" data-name="Trazado 171681" d="M35,0A35,35,0,1,1,0,35,35,35,0,0,1,35,0Z" transform="translate(343 1241.25)" fill="#169788" opacity="0.2"/>
    <circle id="Elipse_4607" data-name="Elipse 4607" cx="29.5" cy="29.5" r="29.5" transform="translate(349 1247.25)" fill="#169788" opacity="0.2"/>
    <circle id="Elipse_4606" data-name="Elipse 4606" cx="21.5" cy="21.5" r="21.5" transform="translate(357 1255.25)" fill="#169788" opacity="0.8"/>
    <path id="Trazado_626851" data-name="Trazado 626851" d="M16.187,31H1.3V27.777L8.159,20.57q2.534-2.886,2.534-4.585a3.189,3.189,0,0,0-.6-2.095,2.144,2.144,0,0,0-1.743-.718,2.171,2.171,0,0,0-1.831.959,3.943,3.943,0,0,0-.7,2.4H.864A7,7,0,0,1,1.846,12.9,6.882,6.882,0,0,1,4.57,10.3a8.094,8.094,0,0,1,3.9-.937,7.962,7.962,0,0,1,5.325,1.6,5.7,5.7,0,0,1,1.868,4.585A6.658,6.658,0,0,1,15.19,18a10.76,10.76,0,0,1-1.458,2.5,36.715,36.715,0,0,1-3.186,3.508L7.793,27.191h8.394Z" transform="translate(370 1257.25)" fill="#fff"/>
  </g>
</svg>
