<svg xmlns="http://www.w3.org/2000/svg" width="70" height="70" viewBox="0 0 70 70">
  <g id="Grupo_899439" data-name="Grupo 899439" transform="translate(-343 -1241.25)">
    <path id="Trazado_171681" data-name="Trazado 171681" d="M35,0A35,35,0,1,1,0,35,35,35,0,0,1,35,0Z" transform="translate(343 1241.25)" fill="#169788" opacity="0.2"/>
    <circle id="Elipse_4607" data-name="Elipse 4607" cx="29.5" cy="29.5" r="29.5" transform="translate(349 1247.25)" fill="#169788" opacity="0.2"/>
    <circle id="Elipse_4606" data-name="Elipse 4606" cx="21.5" cy="21.5" r="21.5" transform="translate(357 1255.25)" fill="#169788" opacity="0.8"/>
    <path id="Trazado_626878" data-name="Trazado 626878" d="M5.815,18.271H8.145q2.769,0,2.769-2.71a2.343,2.343,0,0,0-.659-1.721,2.5,2.5,0,0,0-1.86-.667,2.676,2.676,0,0,0-1.707.571,1.743,1.743,0,0,0-.725,1.421H1.025a5.053,5.053,0,0,1,.938-3,6.191,6.191,0,0,1,2.6-2.058,8.89,8.89,0,0,1,3.655-.74,8.735,8.735,0,0,1,5.6,1.626,5.405,5.405,0,0,1,2.036,4.468,4.505,4.505,0,0,1-.842,2.6,6,6,0,0,1-2.454,1.985,5.734,5.734,0,0,1,2.666,1.868,4.919,4.919,0,0,1,.967,3.1,5.5,5.5,0,0,1-2.2,4.57,9.12,9.12,0,0,1-5.771,1.714,9.458,9.458,0,0,1-3.889-.8,6.093,6.093,0,0,1-2.717-2.212,5.751,5.751,0,0,1-.923-3.215H5.654a2.223,2.223,0,0,0,.791,1.7,2.793,2.793,0,0,0,1.948.718,2.925,2.925,0,0,0,2.08-.725,2.424,2.424,0,0,0,.776-1.853,2.833,2.833,0,0,0-.806-2.285,3.368,3.368,0,0,0-2.227-.674h-2.4Z" transform="translate(370 1257.25)" fill="#fff"/>
  </g>
</svg>
