<svg xmlns="http://www.w3.org/2000/svg" width="70" height="70" viewBox="0 0 70 70">
  <g id="Grupo_899441" data-name="Grupo 899441" transform="translate(-343 -1241.25)">
    <path id="Trazado_171681" data-name="Trazado 171681" d="M35,0A35,35,0,1,1,0,35,35,35,0,0,1,35,0Z" transform="translate(343 1241.25)" fill="#169788" opacity="0.2"/>
    <circle id="Elipse_4607" data-name="Elipse 4607" cx="29.5" cy="29.5" r="29.5" transform="translate(349 1247.25)" fill="#169788" opacity="0.2"/>
    <circle id="Elipse_4606" data-name="Elipse 4606" cx="21.5" cy="21.5" r="21.5" transform="translate(357 1255.25)" fill="#169788" opacity="0.8"/>
    <path id="Trazado_626880" data-name="Trazado 626880" d="M1.6,20.57l1.3-10.9H15.366V13.51H6.914l-.483,4.233A5.838,5.838,0,0,1,7.815,17.2a6.342,6.342,0,0,1,1.677-.234,6.257,6.257,0,0,1,4.885,1.882,7.582,7.582,0,0,1,1.707,5.281,7.569,7.569,0,0,1-.916,3.713A6.293,6.293,0,0,1,12.6,30.4a8.116,8.116,0,0,1-3.911.894,8.727,8.727,0,0,1-3.765-.828,6.755,6.755,0,0,1-2.754-2.271,5.52,5.52,0,0,1-.981-3.259H6.138a2.809,2.809,0,0,0,.747,1.86,2.369,2.369,0,0,0,1.772.688q2.49,0,2.49-3.691,0-3.413-3.047-3.413a3.038,3.038,0,0,0-2.578,1.113Z" transform="translate(370 1257.25)" fill="#fff"/>
  </g>
</svg>
