<svg xmlns="http://www.w3.org/2000/svg" width="70" height="70" viewBox="0 0 70 70">
  <g id="Grupo_899442" data-name="Grupo 899442" transform="translate(-343 -1241.25)">
    <path id="Trazado_171681" data-name="Trazado 171681" d="M35,0A35,35,0,1,1,0,35,35,35,0,0,1,35,0Z" transform="translate(343 1241.25)" fill="#169788" opacity="0.2"/>
    <circle id="Elipse_4607" data-name="Elipse 4607" cx="29.5" cy="29.5" r="29.5" transform="translate(349 1247.25)" fill="#169788" opacity="0.2"/>
    <circle id="Elipse_4606" data-name="Elipse 4606" cx="21.5" cy="21.5" r="21.5" transform="translate(357 1255.25)" fill="#169788" opacity="0.8"/>
    <path id="Trazado_626881" data-name="Trazado 626881" d="M13.228,9.364v3.882h-.22a7.411,7.411,0,0,0-4.548,1.326,5.6,5.6,0,0,0-2.19,3.684,5.773,5.773,0,0,1,4.219-1.641A5.385,5.385,0,0,1,14.9,18.637a8.153,8.153,0,0,1,1.641,5.3,7.466,7.466,0,0,1-.959,3.735A6.846,6.846,0,0,1,12.9,30.333a7.7,7.7,0,0,1-3.816.959A7.961,7.961,0,0,1,5.024,30.26a7.1,7.1,0,0,1-2.783-2.952,9.719,9.719,0,0,1-1.025-4.424V20.907a12.312,12.312,0,0,1,1.414-5.925,10.248,10.248,0,0,1,4.036-4.124A11.538,11.538,0,0,1,12.48,9.364ZM8.774,20.395a2.824,2.824,0,0,0-1.641.454,2.883,2.883,0,0,0-.981,1.113v1.479q0,4.043,2.8,4.043a2.27,2.27,0,0,0,1.882-1.011,4.119,4.119,0,0,0,.754-2.534,4.043,4.043,0,0,0-.769-2.556A2.46,2.46,0,0,0,8.774,20.395Z" transform="translate(370 1257.25)" fill="#fff"/>
  </g>
</svg>
